<svg xmlns="http://www.w3.org/2000/svg" width="166" height="125" viewBox="0 0 166 125">
  <g id="Group_6" data-name="Group 6" transform="translate(-82 -114)">
    <g id="Group_5" data-name="Group 5" transform="translate(115.359 114)">
      <g id="Artboard_2" data-name="Artboard 2">
        <path id="Path_1" data-name="Path 1" d="M292.019,15.1,285.614,20.1a36.425,36.425,0,0,0-44.7-7.292L241,12.9a37.028,37.028,0,0,0-15.32,16.41l-.063-.06-6.17-5.937q.639-1.158,1.343-2.276l-.022-.021A44.543,44.543,0,0,1,292.018,15.1Z" transform="translate(-201.364 0)" fill="#169ad6"/>
        <path id="Path_2" data-name="Path 2" d="M375.7,627.493a32.557,32.557,0,0,1-9.242,5.377,32.027,32.027,0,0,1-11.346,2.064,32.792,32.792,0,0,1-30.3-20.719l1.23-1.256,1.188-1.213q1.46-1.492,2.912-2.99.885-.911,1.766-1.825h4.457a19.618,19.618,0,0,0,18.676,14.578c.211,0,.422,0,.631-.011a18.8,18.8,0,0,0,10.728-3.811l9.3,9.808Z" transform="translate(-298.041 -556.91)" fill="#2d3981"/>
        <path id="Path_3" data-name="Path 3" d="M400.382,166.426q0,1.382-.109,2.738H375.891a9.972,9.972,0,0,0,0-10.407h9.788a19.186,19.186,0,0,0-36.286,0h9.855a9.972,9.972,0,0,0,0,10.407H347.087q.529-.555,1.056-1.112,1.884-1.984,3.736-3.985L348.694,161l-2.334-2.247-7.93-7.632a32.551,32.551,0,0,1,61.092,7.632,34.375,34.375,0,0,1,.861,7.669Z" transform="translate(-310.538 -121.938)" fill="#2d3981"/>
        <path id="Path_4" data-name="Path 4" d="M273.671,722.372a44.5,44.5,0,0,1-58.139-.683l-.007.011a45.218,45.218,0,0,1-10.905-14.47.213.213,0,0,0,.019-.019q3.081-3.2,6.2-6.372.44,1.183.957,2.328c.009-.011.019-.021.03-.031a36.422,36.422,0,0,0,56.205,13.3l5.636,5.941Z" transform="translate(-187.756 -643.08)" fill="#169ad6"/>
        <path id="Path_5" data-name="Path 5" d="M160.5,304.6a36.622,36.622,0,0,0,2.28,12.763q-3.115,3.177-6.2,6.371a.193.193,0,0,1-.019.019,44.937,44.937,0,0,1,1.221-40.833l6.17,5.937.063.06A36.549,36.549,0,0,0,160.5,304.6Z" transform="translate(-139.693 -259.603)" fill="#0461b5"/>
        <path id="Path_6" data-name="Path 6" d="M12.546,235.18A44.685,44.685,0,0,0,16.864,254.4q-3.036,3.154-6,6.345A38.661,38.661,0,0,1,.011,233.166c.346-14.765,9.73-24,11.6-25.826l6.456,6.212.016.016a44.685,44.685,0,0,0-5.539,21.611Z" transform="translate(0 -190.252)" fill="#39a0d8"/>
        <path id="Path_7" data-name="Path 7" d="M269.552,368.751l-.323.348q-1.727,1.862-3.487,3.708c-2.7,2.833-5.441,5.645-8.192,8.452q-1.391,1.419-2.785,2.841v0l-.025.025a36.81,36.81,0,0,1,1.231-28.445l2.45,2.359v0l7.321,7.044,3.536,3.4.273.262Z" transform="translate(-231.654 -326.367)" fill="#39a0d8"/>
        <g id="Group_1" data-name="Group 1" transform="translate(49.487 38.08)">
          <path id="Path_8" data-name="Path 8" d="M600.46,468.505l3.132-4.6h1.791v4.862h.931v1.177H605.4v1.433H604v-1.433H600.46Zm3.551.277v-3.347l-2.231,3.347Z" transform="translate(-600.46 -463.757)" fill="#2d3981"/>
          <path id="Path_9" data-name="Path 9" d="M682.451,535.7a.856.856,0,1,1-.9.86A.874.874,0,0,1,682.451,535.7Z" transform="translate(-674.867 -529.63)" fill="#2d3981"/>
          <path id="Path_10" data-name="Path 10" d="M712.109,462.05c1.781,0,2.988,1.422,2.988,3.552v.676c0,2.129-1.207,3.551-2.988,3.551s-2.989-1.422-2.989-3.551V465.6C709.12,463.473,710.318,462.05,712.109,462.05Zm0,6.438c.952,0,1.535-.85,1.535-2.211V465.6c0-1.361-.583-2.211-1.535-2.211s-1.535.839-1.535,2.211v.676C710.574,467.638,711.157,468.488,712.109,468.488Z" transform="translate(-700.165 -462.05)" fill="#2d3981"/>
        </g>
      </g>
    </g>
    <text id="CONTROLE_EXPERTISE_4.0" data-name="CONTROLE &amp; EXPERTISE 4.0" transform="translate(82 222)" fill="#404040" font-size="13" font-family="SegoeUI-Semibold, Segoe UI" font-weight="600"><tspan x="0" y="0">CONTROLE &amp; EXPERTISE 4.0</tspan></text>
    <text id="A_NOUS_D_ANTICIPER" data-name="A NOUS D&apos;ANTICIPER" transform="translate(112 236)" fill="#2d3981" font-size="11" font-family="SegoeUI-Semibold, Segoe UI" font-weight="600"><tspan x="0" y="0">A NOUS D&apos;ANTICIPER</tspan></text>
  </g>
</svg>
